<?xml version="1.0" encoding="UTF-8" standalone="no"?><!DOCTYPE svg PUBLIC "-//W3C//DTD SVG 1.1//EN" "http://www.w3.org/Graphics/SVG/1.1/DTD/svg11.dtd"><svg width="100%" height="100%" viewBox="0 0 330 114" version="1.1" xmlns="http://www.w3.org/2000/svg" xmlns:xlink="http://www.w3.org/1999/xlink" xml:space="preserve" xmlns:serif="http://www.serif.com/" style="fill-rule:evenodd;clip-rule:evenodd;stroke-linejoin:round;stroke-miterlimit:1.41421;"><rect id="Gunnar-Hansen" serif:id="Gunnar Hansen" x="0" y="0" width="330" height="114" style="fill:none;"/><path d="M49.053,82.686c1.015,-0.83 0.622,-1.679 -0.654,-1.881c-37.019,-5.869 -36.668,-50.866 -21.014,-60.887c9.705,-6.213 36.298,-15.383 59.725,23.657c-23.216,17.835 6.54,46.564 22.446,54.115c33.451,15.881 80.811,8.639 93.902,-16.385c10.386,-6.649 25.308,-28.694 17.998,-41.138c-7.87,-13.394 -24.592,-5.179 -24.524,1.729c0.011,1.175 0.061,2.527 1.25,2.614c6.88,0.507 15.988,14.996 7.825,24.306c-10.076,11.491 -30.4,6.922 -44.304,-13.43c-24.835,-36.351 -36.373,-37.915 -51.821,-24.81c7.148,19.377 39.99,54.324 61.523,57.257c1.546,0.21 2.087,2.303 -0.901,2.246c-33.679,-0.639 -51.255,-21.336 -69.938,-49.278c-25.793,-38.578 -46.129,-41.669 -70.065,-29.437c-27.775,14.195 -33.448,40.825 -26.031,56.129c12.604,26.008 33.572,24.208 44.583,15.193Z" style="fill-opacity:0.05;"/><path id="Descriptor" d="M13.495,96.419l2.154,-17.048l-1.657,0c-0.518,4.225 -1.305,11.724 -1.471,13.402c-0.124,-1.678 -0.828,-9.177 -1.284,-13.402l-1.575,0c-0.517,4.225 -1.325,11.724 -1.47,13.402c-0.125,-1.678 -0.829,-9.177 -1.305,-13.402l-1.637,0l1.906,17.048l1.926,0c0.477,-3.646 1.202,-11.186 1.305,-12.636c0.104,1.45 0.767,8.97 1.202,12.636l1.906,0Z" style="fill-opacity:0.8;fill-rule:nonzero;"/><path d="M22.382,96.419c-0.415,-2.631 -0.87,-5.386 -1.43,-8.079c0.85,-0.435 1.264,-1.263 1.264,-2.506l0,-3.398c0,-2.237 -0.994,-3.065 -2.962,-3.065l-2.59,0l0,17.048l1.575,0l0,-7.727l0.849,0c0.124,0 0.249,0 0.373,-0.02c0.476,2.568 0.849,5.137 1.201,7.747l1.72,0Zm-1.761,-10.565c0,0.974 -0.373,1.409 -1.347,1.409l-1.035,0l0,-6.297l1.015,0c1.098,0 1.367,0.476 1.367,1.678l0,3.21Z" style="fill-opacity:0.8;fill-rule:nonzero;"/><rect x="23.562" y="79.371" width="1.574" height="17.049" style="fill-opacity:0.8;fill-rule:nonzero;"/><path d="M29.632,96.419l0,-15.453l1.906,0l0,-1.595l-5.365,0l0,1.595l1.905,0l0,15.453l1.554,0Z" style="fill-opacity:0.8;fill-rule:nonzero;"/><path d="M37.152,96.419l0,-1.553l-3.045,0l0,-6.339l2.071,0l0,-1.575l-2.071,0l0,-5.986l2.941,0l0,-1.595l-4.516,0l0,17.048l4.62,0Z" style="fill-opacity:0.8;fill-rule:nonzero;"/><path d="M44.05,96.419c-0.414,-2.631 -0.87,-5.386 -1.429,-8.079c0.849,-0.435 1.263,-1.263 1.263,-2.506l0,-3.398c0,-2.237 -0.994,-3.065 -2.962,-3.065l-2.589,0l0,17.048l1.574,0l0,-7.727l0.849,0c0.125,0 0.249,0 0.373,-0.02c0.477,2.568 0.85,5.137 1.202,7.747l1.719,0Zm-1.761,-10.565c0,0.974 -0.373,1.409 -1.346,1.409l-1.036,0l0,-6.297l1.015,0c1.098,0 1.367,0.476 1.367,1.678l0,3.21Z" style="fill-opacity:0.8;fill-rule:nonzero;"/><path d="M70.794,96.419l-2.217,-17.048l-1.844,0l-2.34,17.048l1.533,0l0.372,-2.858l2.548,0l0.373,2.858l1.575,0Zm-2.134,-4.308l-2.175,0c0.393,-2.901 0.766,-5.801 1.119,-8.742c0.331,2.941 0.704,5.841 1.056,8.742Z" style="fill-opacity:0.8;fill-rule:nonzero;"/><path d="M75.496,93.706c0,0.911 -0.29,1.346 -1.056,1.346c-0.746,0 -1.119,-0.435 -1.119,-1.346l0,-11.601c0,-0.891 0.352,-1.326 1.119,-1.326c0.787,0 1.056,0.414 1.056,1.326l0,3.004l1.429,0l0,-3.025c0,-1.968 -0.807,-2.9 -2.485,-2.9c-1.782,0 -2.714,0.974 -2.714,2.942l0,11.6c0,1.948 0.932,2.88 2.714,2.88c1.719,0 2.485,-0.932 2.485,-2.921l0,-3.522l-1.429,0l0,3.543Z" style="fill-opacity:0.8;fill-rule:nonzero;"/><path d="M81.172,96.419l0,-15.453l1.906,0l0,-1.595l-5.365,0l0,1.595l1.905,0l0,15.453l1.554,0Z" style="fill-opacity:0.8;fill-rule:nonzero;"/><path d="M83.741,93.706c0,1.885 0.891,2.9 2.672,2.9c1.823,0 2.693,-1.015 2.693,-2.9l0,-11.622c0,-1.885 -0.87,-2.9 -2.693,-2.9c-1.781,0 -2.672,1.015 -2.672,2.9l0,11.622Zm3.791,0c0,0.89 -0.352,1.346 -1.119,1.346c-0.725,0 -1.098,-0.456 -1.098,-1.346l0,-11.622c0,-0.849 0.373,-1.305 1.098,-1.305c0.767,0 1.119,0.456 1.119,1.305l0,11.622Z" style="fill-opacity:0.8;fill-rule:nonzero;"/><path d="M96.232,96.419c-0.414,-2.631 -0.87,-5.386 -1.429,-8.079c0.849,-0.435 1.264,-1.263 1.264,-2.506l0,-3.398c0,-2.237 -0.995,-3.065 -2.963,-3.065l-2.589,0l0,17.048l1.574,0l0,-7.727l0.85,0c0.124,0 0.248,0 0.372,-0.02c0.477,2.568 0.85,5.137 1.202,7.747l1.719,0Zm-1.761,-10.565c0,0.974 -0.372,1.409 -1.346,1.409l-1.036,0l0,-6.297l1.015,0c1.098,0 1.367,0.476 1.367,1.678l0,3.21Z" style="fill-opacity:0.8;fill-rule:nonzero;"/><g><g opacity="0.8"><path d="M65.663,99.253c-5.671,-2.043 -11.941,-11.708 -13.487,-15.006c-2.456,-5.24 2.648,-13.067 5.577,-3.45l0.003,-4.502c-4.087,-2.779 -12.054,0.062 -7.908,9.273c6.925,15.387 15.815,13.685 15.815,13.685Z"/><path d="M50.73,85.195c0,0 -8.529,4.248 -3.795,11.927c3.659,5.935 17.383,0.406 15.37,-10.328l-3.478,-0.537c0,0 1.878,1.858 2.048,3.867c0.323,3.803 -6.448,11.625 -11.002,5.633c-3.836,-5.045 0.857,-10.562 0.857,-10.562Z"/></g></g><g id="Name" transform="matrix(3.42922,0,0,3.42922,-309.11,-681.046)"><path d="M95.793,219.693l0,-6.224l-2.176,0l0,1.152l1.008,0l0,2.992c-0.048,0.608 -0.368,0.944 -0.944,0.944c-0.48,0 -0.848,-0.352 -0.848,-1.04l0,-8.96c0,-0.672 0.24,-1.024 0.864,-1.024c0.656,0 0.912,0.352 0.912,1.024l0,2.32l1.088,0l0,-2.32c0,-1.44 -0.592,-2.256 -2,-2.256c-1.376,0 -2.08,0.816 -2.08,2.256l0,8.96c0,1.664 0.848,2.24 1.984,2.24c0.72,0 1.344,-0.272 1.6,-0.784l0.4,0.72l0.192,0Z" style="fill-rule:nonzero;"/><path d="M100.481,219.613l0,-9.904l-1.104,0l0,8.336c-0.16,0.416 -0.512,0.592 -0.848,0.592c-0.432,0 -0.608,-0.208 -0.608,-0.8l0,-8.128l-1.104,0l0,8.304c0,1.136 0.432,1.712 1.28,1.712c0.608,0 1.104,-0.304 1.408,-0.832c0,0.256 0.016,0.496 0.032,0.72l0.944,0Z" style="fill-rule:nonzero;"/><path d="M105.361,219.613l0,-8.24c0,-1.248 -0.416,-1.824 -1.296,-1.824c-0.608,0 -1.136,0.352 -1.424,0.912c0,-0.272 -0.016,-0.512 -0.048,-0.752l-0.928,0l0,9.904l1.104,0l0,-8.368c0.16,-0.416 0.528,-0.608 0.848,-0.608c0.464,0 0.64,0.224 0.64,0.8l0,8.176l1.104,0Z" style="fill-rule:nonzero;"/><path d="M110.193,219.613l0,-8.24c0,-1.248 -0.416,-1.824 -1.296,-1.824c-0.608,0 -1.136,0.352 -1.424,0.912c0,-0.272 -0.016,-0.512 -0.048,-0.752l-0.928,0l0,9.904l1.104,0l0,-8.368c0.16,-0.416 0.528,-0.608 0.848,-0.608c0.464,0 0.64,0.224 0.64,0.8l0,8.176l1.104,0Z" style="fill-rule:nonzero;"/><path d="M114.785,219.613c-0.064,-0.24 -0.08,-0.672 -0.08,-1.136l0,-6.976c0,-1.296 -0.592,-1.952 -1.744,-1.952c-1.184,0 -1.728,0.656 -1.728,1.952l0,2.096l0.976,0l0,-2.08c0,-0.56 0.144,-0.864 0.72,-0.864c0.544,0 0.72,0.304 0.72,0.864l0,2.16c-1.424,0.592 -2.544,1.12 -2.544,3.056l0,1.456c0,1.104 0.528,1.568 1.424,1.568c0.544,0 0.928,-0.272 1.184,-0.736c0,0.224 0.016,0.432 0.064,0.592l1.008,0Zm-1.136,-1.552c-0.112,0.448 -0.4,0.624 -0.72,0.624c-0.496,0 -0.752,-0.256 -0.752,-0.816l0,-1.056c0,-1.2 0.176,-1.808 1.472,-2.256l0,3.504Z" style="fill-rule:nonzero;"/><path d="M116.977,219.613l0,-8.224c0.208,-0.464 0.576,-0.592 0.912,-0.592c0.176,0 0.384,0.032 0.496,0.112l0,-1.232c-0.08,-0.032 -0.208,-0.064 -0.336,-0.064c-0.528,0 -0.928,0.24 -1.2,0.816c0,-0.24 -0.016,-0.48 -0.048,-0.72l-0.928,0l0,9.904l1.104,0Z" style="fill-rule:nonzero;"/><g transform="matrix(1.04,0,0,1,-4.83077,0)"><path d="M125.537,219.613l0,-13.168l-1.472,0l0,5.728l-1.248,0l0,-5.728l-1.472,0l0,13.168l1.472,0l0,-5.968l1.248,0l0,5.968l1.472,0Z" style="fill-rule:nonzero;"/><path d="M130.193,219.613c-0.048,-0.16 -0.08,-0.48 -0.08,-0.848l0,-7.264c0,-1.296 -0.592,-1.952 -1.776,-1.952c-1.184,0 -1.744,0.656 -1.744,1.952l0,2.096l1.168,0l0,-2.08c0,-0.4 0.096,-0.624 0.544,-0.624c0.384,0 0.528,0.224 0.528,0.624l0,2.24c-1.312,0.576 -2.384,1.088 -2.384,2.976l0,1.456c0,1.104 0.496,1.568 1.36,1.568c0.528,0 0.864,-0.256 1.104,-0.688c0,0.208 0.016,0.4 0.064,0.544l1.216,0Zm-1.36,-1.584c-0.096,0.304 -0.288,0.432 -0.528,0.432c-0.352,0 -0.544,-0.208 -0.544,-0.608l0,-1.024c0,-1.04 0,-1.616 1.072,-2l0,3.2Z" style="fill-rule:nonzero;"/><path d="M135.009,219.613l0,-8.24c0,-1.232 -0.416,-1.824 -1.264,-1.824c-0.544,0 -1.024,0.288 -1.328,0.8c0,-0.24 -0.016,-0.448 -0.048,-0.64l-1.12,0l0,9.904l1.328,0l0,-8.368c0.128,-0.272 0.384,-0.384 0.608,-0.384c0.336,0 0.48,0.176 0.48,0.592l0,8.16l1.344,0Z" style="fill-rule:nonzero;"/><path d="M139.553,216.957c0,-0.832 -0.096,-1.312 -0.544,-1.888c-0.448,-0.576 -1.04,-1.056 -1.52,-1.68c-0.224,-0.288 -0.256,-0.48 -0.256,-0.8l0,-1.088c0,-0.416 0.176,-0.608 0.512,-0.608c0.32,0 0.544,0.208 0.544,0.608l0,1.568l1.216,0l0,-1.568c0,-1.344 -0.4,-1.952 -1.792,-1.952c-1.152,0 -1.792,0.528 -1.792,1.952l0,0.944c0,0.656 0.096,1.168 0.432,1.6c0.496,0.64 1.072,1.152 1.568,1.808c0.256,0.336 0.304,0.496 0.304,0.912l0,1.072c0,0.416 -0.176,0.608 -0.528,0.608c-0.336,0 -0.56,-0.208 -0.56,-0.608l0,-1.536l-1.216,0l0,1.568c0,1.296 0.608,1.888 1.744,1.888c1.248,0 1.888,-0.528 1.888,-1.824l0,-0.976Z" style="fill-rule:nonzero;"/><path d="M142.753,213.885l-1.056,0l0,-2.304c0,-0.416 0.16,-0.64 0.512,-0.64c0.352,0 0.544,0.224 0.544,0.64l0,2.304Zm0,3.856c0,0.448 -0.192,0.656 -0.544,0.656c-0.336,0 -0.512,-0.208 -0.512,-0.64l0,-2.912l2.304,0l0,-3.264c0,-1.344 -0.608,-2.032 -1.792,-2.032c-1.152,0 -1.744,0.688 -1.744,2.032l0,6.176c0,1.328 0.576,2 1.744,2c1.184,0 1.792,-0.672 1.792,-2l0,-2.176l-1.248,0l0,2.16Z" style="fill-rule:nonzero;"/><path d="M148.817,219.613l0,-8.24c0,-1.232 -0.416,-1.824 -1.264,-1.824c-0.544,0 -1.024,0.288 -1.328,0.8c0,-0.24 -0.016,-0.448 -0.048,-0.64l-1.12,0l0,9.904l1.328,0l0,-8.368c0.128,-0.272 0.384,-0.384 0.608,-0.384c0.336,0 0.48,0.176 0.48,0.592l0,8.16l1.344,0Z" style="fill-rule:nonzero;"/></g></g><path id="Title" d="M25.192,31.313l0,-10.174l1.255,0l0,-1.05l-3.532,0l0,1.05l1.254,0l0,10.174l1.023,0Z" style="fill-opacity:0.4;fill-rule:nonzero;"/><path d="M30.252,31.313l0,-7.024c0,-1.077 -0.341,-1.555 -1.091,-1.555c-0.477,0 -0.873,0.246 -1.118,0.614l0,-3.259l-0.941,0l0,11.224l0.941,0l0,-7.133c0.136,-0.354 0.45,-0.518 0.722,-0.518c0.396,0 0.546,0.191 0.546,0.682l0,6.969l0.941,0Z" style="fill-opacity:0.4;fill-rule:nonzero;"/><path d="M33.225,26.499l-1.214,0l0,-2.032c0,-0.491 0.178,-0.751 0.587,-0.751c0.409,0 0.627,0.26 0.627,0.751l0,2.032Zm0,3.232c0,0.505 -0.218,0.75 -0.627,0.75c-0.382,0 -0.587,-0.232 -0.587,-0.75l0,-2.55l2.101,0l0,-2.714c0,-1.146 -0.518,-1.733 -1.514,-1.733c-0.941,0 -1.459,0.587 -1.459,1.733l0,5.264c0,1.132 0.491,1.705 1.459,1.705c0.996,0 1.514,-0.573 1.514,-1.705l0,-1.855l-0.887,0l0,1.855Z" style="fill-opacity:0.4;fill-rule:nonzero;"/><path d="M36.812,29.526c0,1.242 0.587,1.91 1.76,1.91c1.2,0 1.773,-0.668 1.773,-1.91l0,-7.651c0,-1.241 -0.573,-1.909 -1.773,-1.909c-1.173,0 -1.76,0.668 -1.76,1.909l0,7.651Zm2.496,0c0,0.587 -0.232,0.887 -0.736,0.887c-0.478,0 -0.723,-0.3 -0.723,-0.887l0,-7.651c0,-0.559 0.245,-0.859 0.723,-0.859c0.504,0 0.736,0.3 0.736,0.859l0,7.651Z" style="fill-opacity:0.4;fill-rule:nonzero;"/><path d="M42.24,31.313l0,-7.61l0.955,0l0,-0.832l-0.955,0l0,-1.146c0,-0.614 0.205,-0.859 0.641,-0.859c0.123,0 0.246,0.014 0.341,0.041l0,-0.805c-0.163,-0.054 -0.395,-0.082 -0.613,-0.082c-0.969,0 -1.296,0.628 -1.296,1.678l0,1.173l-0.409,0l0,0.832l0.409,0l0,7.61l0.927,0Z" style="fill-opacity:0.4;fill-rule:nonzero;"/><path d="M44.845,31.313l0,-7.61l0.955,0l0,-0.832l-0.955,0l0,-1.146c0,-0.614 0.205,-0.859 0.641,-0.859c0.123,0 0.246,0.014 0.341,0.041l0,-0.805c-0.163,-0.054 -0.395,-0.082 -0.613,-0.082c-0.969,0 -1.296,0.628 -1.296,1.678l0,1.173l-0.409,0l0,0.832l0.409,0l0,7.61l0.927,0Zm2.605,-9.52l0,-1.704l-0.941,0l0,1.704l0.941,0Zm0,9.52l0,-8.442l-0.941,0l0,8.442l0.941,0Z" style="fill-opacity:0.4;fill-rule:nonzero;"/><path d="M50.574,29.731c0,0.477 -0.191,0.75 -0.628,0.75c-0.409,0 -0.627,-0.273 -0.627,-0.764l0,-5.25c0,-0.464 0.218,-0.764 0.627,-0.764c0.423,0 0.628,0.286 0.628,0.75l0,1.841l0.845,0l0,-1.827c0,-1.023 -0.436,-1.733 -1.473,-1.733c-1.036,0 -1.541,0.71 -1.541,1.746l0,5.237c0,1.023 0.505,1.719 1.541,1.719c1.037,0 1.5,-0.682 1.5,-1.691l0,-1.882l-0.872,0l0,1.868Z" style="fill-opacity:0.4;fill-rule:nonzero;"/><path d="M53.315,21.793l0,-1.704l-0.941,0l0,1.704l0.941,0Zm0,9.52l0,-8.442l-0.941,0l0,8.442l0.941,0Z" style="fill-opacity:0.4;fill-rule:nonzero;"/><path d="M57.297,31.313c-0.054,-0.204 -0.068,-0.573 -0.068,-0.968l0,-5.947c0,-1.104 -0.504,-1.664 -1.486,-1.664c-1.01,0 -1.473,0.56 -1.473,1.664l0,1.787l0.832,0l0,-1.773c0,-0.477 0.122,-0.737 0.613,-0.737c0.464,0 0.614,0.26 0.614,0.737l0,1.841c-1.214,0.505 -2.168,0.955 -2.168,2.605l0,1.241c0,0.941 0.45,1.337 1.213,1.337c0.464,0 0.791,-0.232 1.01,-0.628c0,0.191 0.013,0.369 0.054,0.505l0.859,0Zm-0.968,-1.323c-0.095,0.382 -0.341,0.532 -0.614,0.532c-0.422,0 -0.641,-0.218 -0.641,-0.696l0,-0.9c0,-1.023 0.15,-1.541 1.255,-1.923l0,2.987Z" style="fill-opacity:0.4;fill-rule:nonzero;"/><rect x="58.225" y="20.089" width="0.941" height="11.225" style="fill-opacity:0.4;fill-rule:nonzero;"/><path d="M67.117,31.313l1.419,-11.224l-1.091,0c-0.341,2.782 -0.86,7.719 -0.969,8.824c-0.082,-1.105 -0.545,-6.042 -0.845,-8.824l-1.037,0c-0.341,2.782 -0.873,7.719 -0.968,8.824c-0.082,-1.105 -0.546,-6.042 -0.859,-8.824l-1.078,0l1.255,11.224l1.268,0c0.314,-2.4 0.791,-7.365 0.859,-8.319c0.069,0.954 0.505,5.905 0.792,8.319l1.254,0Z" style="fill-opacity:0.4;fill-rule:nonzero;"/><path d="M71.209,26.499l-1.214,0l0,-2.032c0,-0.491 0.177,-0.751 0.586,-0.751c0.41,0 0.628,0.26 0.628,0.751l0,2.032Zm0,3.232c0,0.505 -0.218,0.75 -0.628,0.75c-0.381,0 -0.586,-0.232 -0.586,-0.75l0,-2.55l2.1,0l0,-2.714c0,-1.146 -0.518,-1.733 -1.514,-1.733c-0.941,0 -1.459,0.587 -1.459,1.733l0,5.264c0,1.132 0.491,1.705 1.459,1.705c0.996,0 1.514,-0.573 1.514,-1.705l0,-1.855l-0.886,0l0,1.855Z" style="fill-opacity:0.4;fill-rule:nonzero;"/><path d="M75.287,29.704c0,0.518 -0.191,0.709 -0.6,0.709c-0.314,0 -0.6,-0.191 -0.723,-0.559l0,-5.592c0.123,-0.368 0.423,-0.546 0.723,-0.546c0.409,0 0.6,0.191 0.6,0.641l0,5.347Zm-1.76,1.609c0.069,-0.204 0.123,-0.409 0.15,-0.627c0.219,0.423 0.587,0.723 1.146,0.723c0.968,0 1.391,-0.546 1.391,-1.719l0,-5.401c0,-1.105 -0.382,-1.555 -1.227,-1.555c-0.45,0 -0.819,0.219 -1.023,0.546l0,-3.191l-0.941,0l0,11.224l0.504,0Z" style="fill-opacity:0.4;fill-rule:nonzero;"/><path d="M79.119,29.84c0,0.45 -0.191,0.682 -0.613,0.682c-0.369,0 -0.642,-0.259 -0.642,-0.682l0,-1.35l-0.845,0l0,1.377c0,1.064 0.491,1.569 1.473,1.569c1.05,0 1.568,-0.464 1.568,-1.528l0,-0.913c0,-0.737 -0.109,-1.119 -0.532,-1.61c-0.341,-0.395 -0.845,-0.75 -1.213,-1.145c-0.3,-0.328 -0.382,-0.491 -0.382,-0.887l0,-0.996c0,-0.463 0.204,-0.682 0.613,-0.682c0.341,0 0.614,0.26 0.614,0.682l0,1.378l0.859,0l0,-1.378c0,-1.118 -0.354,-1.623 -1.5,-1.623c-0.982,0 -1.5,0.464 -1.5,1.623l0,0.873c0,0.655 0.082,0.982 0.436,1.391c0.341,0.41 0.873,0.819 1.255,1.269c0.341,0.409 0.409,0.627 0.409,0.982l0,0.968Z" style="fill-opacity:0.4;fill-rule:nonzero;"/><path d="M81.915,21.793l0,-1.704l-0.941,0l0,1.704l0.941,0Zm0,9.52l0,-8.442l-0.941,0l0,8.442l0.941,0Z" style="fill-opacity:0.4;fill-rule:nonzero;"/><path d="M84.902,30.618c-0.055,0.013 -0.123,0.013 -0.177,0.013c-0.587,0 -0.805,-0.259 -0.805,-0.941l0,-5.987l0.955,0l0,-0.832l-0.955,0l0,-2.673l-0.941,0l0,2.673l-0.396,0l0,0.832l0.396,0l0,5.987c0,1.091 0.491,1.746 1.487,1.746c0.15,0 0.341,-0.027 0.436,-0.068l0,-0.75Z" style="fill-opacity:0.4;fill-rule:nonzero;"/><path d="M87.562,26.499l-1.214,0l0,-2.032c0,-0.491 0.177,-0.751 0.586,-0.751c0.409,0 0.628,0.26 0.628,0.751l0,2.032Zm0,3.232c0,0.505 -0.219,0.75 -0.628,0.75c-0.382,0 -0.586,-0.232 -0.586,-0.75l0,-2.55l2.1,0l0,-2.714c0,-1.146 -0.518,-1.733 -1.514,-1.733c-0.941,0 -1.459,0.587 -1.459,1.733l0,5.264c0,1.132 0.491,1.705 1.459,1.705c0.996,0 1.514,-0.573 1.514,-1.705l0,-1.855l-0.886,0l0,1.855Z" style="fill-opacity:0.4;fill-rule:nonzero;"/><path d="M91.148,29.758c0,1.078 0.505,1.678 1.555,1.678c1.023,0 1.555,-0.6 1.555,-1.678l0,-5.332c0,-1.091 -0.532,-1.692 -1.555,-1.692c-1.05,0 -1.555,0.601 -1.555,1.692l0,5.332Zm2.196,-0.027c0,0.491 -0.136,0.75 -0.641,0.75c-0.504,0 -0.641,-0.259 -0.641,-0.723l0,-5.305c0,-0.464 0.137,-0.75 0.641,-0.75c0.505,0 0.641,0.286 0.641,0.75l0,5.278Z" style="fill-opacity:0.4;fill-rule:nonzero;"/><path d="M96.154,31.313l0,-7.61l0.955,0l0,-0.832l-0.955,0l0,-1.146c0,-0.614 0.204,-0.859 0.641,-0.859c0.123,0 0.245,0.014 0.341,0.041l0,-0.805c-0.164,-0.054 -0.396,-0.082 -0.614,-0.082c-0.968,0 -1.296,0.628 -1.296,1.678l0,1.173l-0.409,0l0,0.832l0.409,0l0,7.61l0.928,0Z" style="fill-opacity:0.4;fill-rule:nonzero;"/></svg>